# xmcd
#
# Track frame offsets:
#	150
#	15847
#	37115
#	57472
#	79812
#	100177
#	116940
#	140182
#	160342
#	178022
#
# Disc length: 2655 seconds
#
# Revision: 1
# Processed by: cddbd v1.5.2PL0 Copyright (c) Steve Scherf et al.
# Submitted via: EZCDAudioConverter 8.0.2.1
#
DISCID=890a5d0a
DTITLE=Ngọc Hương - Em Là Áng Mây
DYEAR=1994
DGENRE=World Pop
TTITLE0=Gợi nhớ
TTITLE1=Nỗi sầu
TTITLE2=Em Là Áng Mây
TTITLE3=Con yêu
TTITLE4=Biển ru niềm nhớ
TTITLE5=Bến mơ
TTITLE6=Ru em tiếng sóng biển
TTITLE7=Giàn thiên lý đã xa
TTITLE8=Một trời thương yêu
TTITLE9=Nuối tiếc
EXTD=
EXTT0=
EXTT1=
EXTT2=
EXTT3=
EXTT4=
EXTT5=
EXTT6=
EXTT7=
EXTT8=
EXTT9=
PLAYORDER=
